<svg width="20" height="24" viewBox="0 0 20 24" fill="none" xmlns="http://www.w3.org/2000/svg">
<g clip-path="url(#clip0_301_2)">
<path d="M18 8.5V15C18 20 16.4 22 12.4 22H7.6C3.6 22 2 20 2 15V9C2 4 3.6 2 7.6 2H12.4" fill="#F9B617"/>
<path d="M18 8.5V15C18 20 16.4 22 12.4 22H7.6C3.6 22 2 20 2 15V9C2 4 3.6 2 7.6 2H12.4" stroke="#F9B617" stroke-width="1.5" stroke-linecap="round" stroke-linejoin="round"/>
<path d="M18 8H15.7273C13.6818 8 13 7.125 13 4.5V2L18 8Z" fill="#FCDA8B" stroke="#FCDA8B" stroke-width="1.5" stroke-linecap="round" stroke-linejoin="round"/>
</g>
<defs>
<clipPath id="clip0_301_2">
<rect width="20" height="24" fill="white"/>
</clipPath>
</defs>
</svg>
