<svg width="24" height="24" viewBox="0 0 24 24" fill="none" xmlns="http://www.w3.org/2000/svg">
<path d="M19 11.9868C19.0072 15.8436 15.8619 18.9973 12.0051 19C10.3393 19.0012 8.80928 18.4205 7.60688 17.4501C7.29423 17.1977 7.27086 16.7292 7.55498 16.445L7.873 16.127C8.11599 15.884 8.50393 15.8574 8.77315 16.071C9.65902 16.774 10.7801 17.1936 12 17.1936C14.8707 17.1936 17.1936 14.8703 17.1936 12C17.1936 9.1293 14.8703 6.80646 12 6.80646C10.6222 6.80646 9.3708 7.34187 8.44164 8.21583L9.87421 9.6484C10.1587 9.93292 9.95722 10.4194 9.55489 10.4194H5.45161C5.20218 10.4194 5 10.2172 5 9.96775V5.86447C5 5.46214 5.48644 5.26064 5.77096 5.54513L7.16453 6.93869C8.42123 5.73771 10.1245 5 12 5C15.8616 5 18.9929 8.12686 19 11.9868ZM13.8936 14.2105L14.1709 13.854C14.4006 13.5587 14.3474 13.1331 14.0521 12.9034L12.9032 12.0099V9.06452C12.9032 8.69039 12.6 8.3871 12.2258 8.3871H11.7742C11.4001 8.3871 11.0968 8.69039 11.0968 9.06452V12.8934L12.943 14.3294C13.2383 14.559 13.6639 14.5058 13.8936 14.2105Z" fill="white"/>
</svg>
