<svg width="24" height="24" viewBox="0 0 24 24" fill="none" xmlns="http://www.w3.org/2000/svg">
<path d="M10.6111 7.72223H4.94444C4.42815 7.72223 4 7.29408 4 6.77779C4 6.26149 4.42815 5.83334 4.94444 5.83334H10.6111C11.1274 5.83334 11.5556 6.26149 11.5556 6.77779C11.5556 7.29408 11.1274 7.72223 10.6111 7.72223Z" fill="white"/>
<path d="M20.0555 15.2778H14.3889C13.8726 15.2778 13.4444 14.8497 13.4444 14.3334C13.4444 13.8171 13.8726 13.3889 14.3889 13.3889H20.0555C20.5718 13.3889 21 13.8171 21 14.3334C21 14.8497 20.5718 15.2778 20.0555 15.2778Z" fill="white"/>
<path d="M20.0555 20.0001H14.3889C13.8726 20.0001 13.4444 19.5719 13.4444 19.0556C13.4444 18.5393 13.8726 18.1112 14.3889 18.1112H20.0555C20.5718 18.1112 21 18.5393 21 19.0556C21 19.5719 20.5718 20.0001 20.0555 20.0001Z" fill="white"/>
<path d="M20.0555 5.83333H18.1918V3.94444C18.1918 3.42815 17.7637 3 17.2474 3C16.7311 3 16.3029 3.42815 16.3029 3.94444V5.83333H14.3889C13.8726 5.83333 13.4444 6.26148 13.4444 6.77778C13.4444 7.29407 13.8726 7.72222 14.3889 7.72222H16.3029V9.61116C16.3029 10.1275 16.7311 10.5556 17.2474 10.5556C17.7637 10.5556 18.1918 10.1275 18.1918 9.61116V7.72222H20.0555C20.5718 7.72222 21 7.29407 21 6.77778C21 6.26148 20.5718 5.83333 20.0555 5.83333Z" fill="white"/>
<path d="M9.11192 16.7005L11.2779 14.5346C11.6431 14.1694 11.6431 13.565 11.2779 13.1998C10.9127 12.8346 10.3083 12.8346 9.94303 13.1998L7.7771 15.3657L5.61118 13.1998C5.24599 12.8346 4.64155 12.8346 4.27636 13.1998C3.91118 13.565 3.91118 14.1694 4.27636 14.5346L6.44229 16.7005L4.27636 18.8665C3.91118 19.2316 3.91118 19.8361 4.27636 20.2013C4.46525 20.3902 4.70451 20.4783 4.94377 20.4783C5.18303 20.4783 5.42229 20.3902 5.61118 20.2013L7.7771 18.0353L9.94303 20.2013C10.132 20.3902 10.3712 20.4783 10.6105 20.4783C10.8498 20.4783 11.089 20.3902 11.2779 20.2013C11.6431 19.8361 11.6431 19.2316 11.2779 18.8665L9.11192 16.7005Z" fill="white"/>
</svg>
