<svg width="24" height="24" viewBox="0 0 24 24" fill="none" xmlns="http://www.w3.org/2000/svg">
<path d="M8.92754 13.8551H9.29711V14.3478C9.29711 14.6201 9.51762 14.8406 9.78986 14.8406H11.0217C11.294 14.8406 11.5145 14.6201 11.5145 14.3478V13.8551H11.8841C12.4283 13.8551 12.8696 13.4138 12.8696 12.8696V5.97102C12.8696 5.42683 12.4283 4.98551 11.8841 4.98551V4.49275C11.8841 4.22051 11.6636 4 11.3913 4H9.4203C9.14805 4 8.92754 4.22051 8.92754 4.49275V4.98551C8.38336 4.98551 7.94203 5.42683 7.94203 5.97102V12.8696C7.94203 13.4138 8.38336 13.8551 8.92754 13.8551ZM18.2899 17.7971H18.2501C19.1904 16.7497 19.7681 15.3703 19.7681 13.8551C19.7681 10.5943 17.1159 7.94203 13.8551 7.94203V9.91305C16.0287 9.91305 17.7971 11.6814 17.7971 13.8551C17.7971 16.0287 16.0287 17.7971 13.8551 17.7971H5.47826C4.66183 17.7971 4 18.459 4 19.2754C4 19.5476 4.22051 19.7681 4.49275 19.7681H19.2754C19.5476 19.7681 19.7681 19.5476 19.7681 19.2754C19.7681 18.459 19.1063 17.7971 18.2899 17.7971ZM7.2029 16.8116H13.6087C13.7448 16.8116 13.8551 16.7014 13.8551 16.5652V16.0725C13.8551 15.9364 13.7448 15.8261 13.6087 15.8261H7.2029C7.06678 15.8261 6.95653 15.9364 6.95653 16.0725V16.5652C6.95653 16.7014 7.06678 16.8116 7.2029 16.8116Z" fill="white"/>
</svg>
